<?xml version="1.0" encoding="UTF-8"?>
<svg version="1.1" xmlns="http://www.w3.org/2000/svg" width="500" height="500">
<path d="M0 0 C165 0 330 0 500 0 C500 165 500 330 500 500 C335 500 170 500 0 500 C0 335 0 170 0 0 Z " fill="#FEFEFE" transform="translate(0,0)"/>
<path d="M0 0 C0.33 0 0.66 0 1 0 C1.495 5.94 1.495 5.94 2 12 C3.75763672 11.96519531 3.75763672 11.96519531 5.55078125 11.9296875 C24.36578468 11.66090174 39.87599519 14.90079615 55 27 C55.83144531 27.64453125 56.66289062 28.2890625 57.51953125 28.953125 C71.63420119 40.66114615 79.71337818 58.02608896 82 76 C83.78231754 97.23282634 77.0242631 115.07741237 64.75 132.125 C53.09883758 144.30576071 36.72191881 155.03838166 19.48828125 156.1640625 C17.65813729 156.18322631 15.82720598 156.10541573 14 156 C9.37461551 148.56634636 8.32051037 139.55203032 10 131 C13.26995956 121.22491736 18.46267516 112.2464797 23.44726562 103.26757812 C27.04851387 96.56051348 29.1696857 90.58378799 30 83 C32.48487347 85.48487347 32.35175825 86.36769928 32.4375 89.8125 C32.19712151 100.71437143 26.40200993 110.57435754 21.6796875 120.17626953 C18.70118489 126.30500044 17.86514631 131.12246163 18 138 C18.556875 137.35933594 19.11375 136.71867188 19.6875 136.05859375 C23.33588814 131.923343 26.8887385 127.96727959 31.1875 124.5 C38.40900602 118.37397194 42.23337976 110.15326664 43.23535156 100.80395508 C44.21192856 84.62193373 39.90414913 72.47363663 31.57421875 58.765625 C30 56 30 56 30 54 C29.34 54 28.68 54 28 54 C27.9071875 55.7015625 27.9071875 55.7015625 27.8125 57.4375 C26.39806463 68.31336116 17.60387737 77.61746088 10 84.9375 C0.05421395 94.6287679 -7.06073193 105.60280109 -7.25 119.6875 C-7.17345909 128.82457057 -5.33988442 135.63464218 0 143 C0 143.66 0 144.32 0 145 C-13.17547935 138.97003233 -22.88221207 126.75782605 -29 114 C-29.4021875 113.18015625 -29.804375 112.3603125 -30.21875 111.515625 C-37.30634185 96.42917949 -35.9936696 74.64482531 -30.75830078 59.00146484 C-27.70026913 50.93007286 -23.50000631 43.34580469 -19 36 C-18.67 36.66 -18.34 37.32 -18 38 C-18.64281496 39.63152559 -19.36896358 41.23025611 -20.125 42.8125 C-25.85790019 56.34985255 -28.44426873 69.92666713 -28.5 84.625 C-28.50620361 85.69057129 -28.51240723 86.75614258 -28.51879883 87.85400391 C-28.38699449 96.07730871 -26.58633609 103.24099172 -24 111 C-23.90203125 110.40574219 -23.8040625 109.81148438 -23.703125 109.19921875 C-21.43185318 96.60932411 -17.38609807 87.68971604 -8.53515625 78.41796875 C-0.11898779 69.57149995 5.55935909 61.88277168 5.30224609 49.3605957 C4.64100628 42.0084422 2.43024774 34.96203469 0.48828125 27.86523438 C-4.32584096 9.38489994 -4.32584096 9.38489994 -0.97851562 1.63500977 C-0.65560547 1.09545654 -0.33269531 0.55590332 0 0 Z " fill="#9AE633" transform="translate(145,172)"/>
<path d="M0 0 C5.31676686 3.82908646 9.68604048 7.73869777 12 14 C12.34417969 14.91007812 12.68835938 15.82015625 13.04296875 16.7578125 C15.45996017 24.94598753 14.95049762 34.0139384 11.32421875 41.75 C6.88692472 49.28947304 1.46916597 54.06055185 -6.94140625 56.58203125 C-13.86657875 57.98809094 -20.80711683 57.48894826 -27 54 C-33.3722237 49.72811819 -38.04495054 44.50631374 -40 37 C-41.16536569 27.73151196 -41.73576202 17.14367268 -36.61328125 8.9765625 C-27.31279318 -2.41822433 -13.70479212 -7.19920144 0 0 Z " fill="#9BE635" transform="translate(391,211)"/>
<path d="M0 0 C0.66 0.33 1.32 0.66 2 1 C1.43152344 1.66644531 0.86304688 2.33289063 0.27734375 3.01953125 C-14.08390418 20.16192235 -22.40668489 37.28626136 -22.25 59.875 C-22.25773437 60.98230469 -22.26546875 62.08960938 -22.2734375 63.23046875 C-22.22147771 85.33935821 -14.1569277 105.45942261 1.27734375 121.34375 C8.68801514 128.35806458 17.37323046 134.45891472 27 138 C27 138.33 27 138.66 27 139 C10.58596235 139.83461208 -5.56739132 133.32911475 -18.05859375 122.7578125 C-18.69925781 122.17773438 -19.33992188 121.59765625 -20 121 C-20.67160156 120.41992188 -21.34320313 119.83984375 -22.03515625 119.2421875 C-33.79569407 108.41070951 -42.0953625 92.03431862 -43.20507812 76.04516602 C-43.30309104 72.90250199 -43.32210912 69.76910324 -43.3125 66.625 C-43.32861328 65.57828125 -43.34472656 64.5315625 -43.36132812 63.453125 C-43.37217258 45.88511072 -36.68258788 30.95046564 -25 18 C-24.39671875 17.30390625 -23.7934375 16.6078125 -23.171875 15.890625 C-17.65697412 9.91228707 -11.032213 5.96259621 -4 2 C-2.87851563 1.36191406 -2.87851563 1.36191406 -1.734375 0.7109375 C-0.87585938 0.35902344 -0.87585938 0.35902344 0 0 Z " fill="#9AE634" transform="translate(126,189)"/>
<path d="M0 0 C12.87 0 25.74 0 39 0 C39 3.3 39 6.6 39 10 C30.09 10 21.18 10 12 10 C12 14.62 12 19.24 12 24 C20.25 24 28.5 24 37 24 C37 27.3 37 30.6 37 34 C28.75 34 20.5 34 12 34 C12 38.62 12 43.24 12 48 C20.91 48 29.82 48 39 48 C39 51.3 39 54.6 39 58 C26.13 58 13.26 58 0 58 C0 38.86 0 19.72 0 0 Z " fill="#99E631" transform="translate(243,209)"/>
<path d="M0 0 C3.80391894 3.14236782 6.61723573 6.67572411 9 11 C9 12.98 9 14.96 9 17 C5.04 17 1.08 17 -3 17 C-3.37125 16.071875 -3.7425 15.14375 -4.125 14.1875 C-6.37946136 10.35491569 -7.8335273 9.44224055 -12 8 C-16.15213097 7.48098363 -18.39315009 7.71442357 -22.1875 9.5 C-26.47014731 13.30679761 -28.6057792 16.95696978 -29.34765625 22.68359375 C-29.55784261 29.27247916 -28.90275821 35.2924272 -24.74609375 40.6015625 C-22.060123 43.22166476 -19.66257809 44.33192758 -16 44.5 C-12.10153393 44.21674625 -9.24411227 43.26333415 -6 41 C-4.09793151 37.94960779 -4.09793151 37.94960779 -3 35 C1.29 35 5.58 35 10 35 C8.58378321 43.49730076 4.80853701 48.08916161 -2 53 C-8.61830081 56.89311813 -15.84345335 56.98515779 -23.26953125 55.56640625 C-29.5467903 53.57303602 -35.09538547 49.35365844 -38.35546875 43.61328125 C-39.32874552 41.43131421 -40.19010827 39.2466488 -41 37 C-41.33 36.34 -41.66 35.68 -42 35 C-43.01449157 22.80041782 -42.58035321 12.84942133 -34.359375 3.04296875 C-24.81439603 -6.12288723 -11.13182094 -6.09174515 0 0 Z " fill="#9BE636" transform="translate(333,212)"/>
<path d="M0 0 C3.99388171 2.84009366 6.21754711 5.31651545 7.8125 10 C8.70090358 16.97110229 9.29059039 24.50709182 5.6875 30.8125 C2.7365106 34.55703277 -0.36093114 36.55250713 -5.13671875 37.30859375 C-8.80135564 37.53894235 -11.03692745 37.0665994 -14.4375 35.5625 C-19.01944043 31.2929646 -20.8267181 27.01142441 -21.5703125 20.8046875 C-21.80320754 14.11283679 -21.44759137 8.38464965 -17.1875 3 C-11.72487932 -1.9660188 -6.75948099 -2.12062149 0 0 Z " fill="#FDFEFB" transform="translate(384.1875,220)"/>
<path d="M0 0 C3.94247735 1.95957454 6.3545981 4.95320074 8 9 C8.7500384 14.90289963 8.45404174 19.99759473 5 25 C2.67479087 27.76118585 1.01210609 28.83466359 -2.55859375 29.41796875 C-7.11650872 29.64679216 -10.85546365 29.69777952 -14.5625 26.8125 C-18.84344314 21.87295023 -19.45395939 17.85255075 -19.3203125 11.4375 C-18.73618843 6.99245832 -16.43263002 4.29308813 -13.1953125 1.37109375 C-9.13029224 -1.16773563 -4.61182954 -0.72080693 0 0 Z " fill="#9CE637" transform="translate(291,277)"/>
<path d="M0 0 C6 0 6 0 7.69091797 1.56054688 C8.12033691 2.27275391 8.54975586 2.98496094 8.9921875 3.71875 C9.46914063 4.48574219 9.94609375 5.25273437 10.4375 6.04296875 C10.911875 6.85378906 11.38625 7.66460937 11.875 8.5 C12.37257813 9.31082031 12.87015625 10.12164062 13.3828125 10.95703125 C14.60792737 12.95962287 15.80655987 14.97837187 17 17 C17.33 11.39 17.66 5.78 18 0 C19.98 0 21.96 0 24 0 C24 9.57 24 19.14 24 29 C18 29 18 29 16.30908203 27.53125 C15.87966309 26.8609375 15.45024414 26.190625 15.0078125 25.5 C14.29238281 24.4171875 14.29238281 24.4171875 13.5625 23.3125 C13.088125 22.549375 12.61375 21.78625 12.125 21 C11.62742187 20.236875 11.12984375 19.47375 10.6171875 18.6875 C9.39272506 16.80371164 8.1938383 14.90334363 7 13 C6.67 18.28 6.34 23.56 6 29 C4.02 29 2.04 29 0 29 C0 19.43 0 9.86 0 0 Z " fill="#9AE633" transform="translate(304,277)"/>
<path d="M0 0 C2.97 0 5.94 0 9 0 C10.50752893 4.26821354 12.00472959 8.53997809 13.5 12.8125 C13.92925781 14.02744141 14.35851562 15.24238281 14.80078125 16.49414062 C15.40986328 18.23920898 15.40986328 18.23920898 16.03125 20.01953125 C16.40830078 21.09307861 16.78535156 22.16662598 17.17382812 23.27270508 C18 26 18 26 18 29 C16.02 29 14.04 29 12 29 C10.5393715 26.35261084 10 25.10551666 10 22 C6.37 22 2.74 22 -1 22 C-1.66 24.31 -2.32 26.62 -3 29 C-4.98 29 -6.96 29 -9 29 C-8.42033198 22.43963016 -6.24886441 16.69819446 -3.9375 10.5625 C-3.37192383 9.03592773 -3.37192383 9.03592773 -2.79492188 7.47851562 C-1.86946564 4.98329819 -0.93769349 2.49063881 0 0 Z " fill="#9CE638" transform="translate(422,277)"/>
<path d="M0 0 C6.6 0 13.2 0 20 0 C20 1.65 20 3.3 20 5 C15.38 5 10.76 5 6 5 C6 7.31 6 9.62 6 12 C10.29 12 14.58 12 19 12 C19 13.65 19 15.3 19 17 C14.71 17 10.42 17 6 17 C6 19.31 6 21.62 6 24 C10.62 24 15.24 24 20 24 C20 25.65 20 27.3 20 29 C13.4 29 6.8 29 0 29 C0 19.43 0 9.86 0 0 Z " fill="#9AE634" transform="translate(333,277)"/>
<path d="M0 0 C2.85981143 1.34677166 3.88660479 2.49729515 6 5 C6.875 7.8125 6.875 7.8125 7 10 C4.25 10.25 4.25 10.25 1 10 C0.360625 9.319375 -0.27875 8.63875 -0.9375 7.9375 C-2.96871107 5.58634191 -2.96871107 5.58634191 -6.625 6 C-9.94207035 6.66877743 -9.94207035 6.66877743 -11.4375 8.5625 C-12.52800778 13.2880337 -13.02825135 17.31366779 -10.4375 21.5625 C-7.95107865 23.31508365 -7.95107865 23.31508365 -4.375 22.9375 C-0.74483076 22.3249155 -0.74483076 22.3249155 1 19 C4.125 18.8125 4.125 18.8125 7 19 C6.79396857 22.60555003 5.98789733 24.01433211 3.625 26.8125 C-0.10346822 29.64937799 -3.80888504 29.70552928 -8.37109375 29.48828125 C-12.59528638 28.70369867 -14.19053759 27.24168739 -17 24 C-19.79512127 19.55321616 -19.66856409 14.08760964 -19 9 C-14.65156212 0.4584256 -9.18498872 -1.42022224 0 0 Z " fill="#9CE638" transform="translate(376,277)"/>
<path d="M0 0 C2.85981143 1.34677166 3.88660479 2.49729515 6 5 C6.875 7.8125 6.875 7.8125 7 10 C4.25 10.25 4.25 10.25 1 10 C0.360625 9.319375 -0.27875 8.63875 -0.9375 7.9375 C-2.96871107 5.58634191 -2.96871107 5.58634191 -6.625 6 C-9.94207035 6.66877743 -9.94207035 6.66877743 -11.4375 8.5625 C-12.52800778 13.2880337 -13.02825135 17.31366779 -10.4375 21.5625 C-7.95107865 23.31508365 -7.95107865 23.31508365 -4.375 22.9375 C-0.74483076 22.3249155 -0.74483076 22.3249155 1 19 C4.125 18.8125 4.125 18.8125 7 19 C6.79396857 22.60555003 5.98789733 24.01433211 3.625 26.8125 C-0.10346822 29.64937799 -3.80888504 29.70552928 -8.37109375 29.48828125 C-12.59528638 28.70369867 -14.19053759 27.24168739 -17 24 C-19.79512127 19.55321616 -19.66856409 14.08760964 -19 9 C-14.65156212 0.4584256 -9.18498872 -1.42022224 0 0 Z " fill="#9CE638" transform="translate(261,277)"/>
<path d="M0 0 C7.92 0 15.84 0 24 0 C24 1.65 24 3.3 24 5 C21.03 5 18.06 5 15 5 C15 12.92 15 20.84 15 29 C13.02 29 11.04 29 9 29 C9 21.08 9 13.16 9 5 C6.03 5 3.06 5 0 5 C0 3.35 0 1.7 0 0 Z " fill="#9CE637" transform="translate(386,277)"/>
<path d="M0 0 C3.375 1.0625 3.375 1.0625 5.3125 2.5625 C6.95182935 6.41974552 7.14245652 9.94747124 6.375 14.0625 C4.3125 17.1875 4.3125 17.1875 1.375 19.0625 C-2.25 19.25 -2.25 19.25 -5.625 18.0625 C-8.69507451 13.90304421 -9.36444537 10.14618694 -8.625 5.0625 C-5.94590469 1.1656341 -4.7824172 0.08245547 0 0 Z " fill="#FAFDF5" transform="translate(286.625,281.9375)"/>
<path d="M0 0 C2.3129482 2.3129482 2.49580975 3.47904875 3.125 6.625 C3.29257812 7.44226563 3.46015625 8.25953125 3.6328125 9.1015625 C3.81457031 10.04128906 3.81457031 10.04128906 4 11 C1.69 11 -0.62 11 -3 11 C-2.69078116 9.54096742 -2.37751201 8.08279278 -2.0625 6.625 C-1.88847656 5.81289063 -1.71445312 5.00078125 -1.53515625 4.1640625 C-1 2 -1 2 0 0 Z " fill="#EEFADD" transform="translate(426,284)"/>
<path d="M0 0 C0.33 0.66 0.66 1.32 1 2 C0.26821134 4.07196631 -0.55899003 6.1108552 -1.4375 8.125 C-1.91058594 9.22070312 -2.38367188 10.31640625 -2.87109375 11.4453125 C-3.24363281 12.28835937 -3.61617188 13.13140625 -4 14 C-4.99 14 -5.98 14 -7 14 C-5.53967505 8.68972746 -3.01679014 4.53669968 0 0 Z " fill="#ACEA58" transform="translate(126,208)"/>
</svg>
